<svg width="69" height="24" viewBox="0 0 69 24" fill="none" xmlns="http://www.w3.org/2000/svg">
<path d="M3 8V19H21V8H3Z" fill="#5548D9"/>
<path d="M5 4.5C5 3.67157 5.67157 3 6.5 3H9.5C10.3284 3 11 3.67157 11 4.5V6.5H5V4.5Z" fill="#AAA4EC"/>
<path d="M13 4.5C13 3.67157 13.6716 3 14.5 3H17.5C18.3284 3 19 3.67157 19 4.5V6.5H13V4.5Z" fill="#AAA4EC"/>
<path d="M30.404 5.256H35.372C35.852 5.256 36.326 5.316 36.794 5.436C37.262 5.544 37.676 5.73 38.036 5.994C38.408 6.246 38.708 6.576 38.936 6.984C39.164 7.392 39.278 7.884 39.278 8.46C39.278 9.18 39.074 9.774 38.666 10.242C38.258 10.71 37.724 11.046 37.064 11.25V11.286C37.868 11.394 38.528 11.706 39.044 12.222C39.56 12.738 39.818 13.428 39.818 14.292C39.818 14.988 39.68 15.576 39.404 16.056C39.128 16.524 38.762 16.902 38.306 17.19C37.862 17.478 37.346 17.688 36.758 17.82C36.182 17.94 35.594 18 34.994 18H30.404V5.256ZM32.672 10.44H34.688C35.444 10.44 36.02 10.29 36.416 9.99C36.812 9.69 37.01 9.264 37.01 8.712C37.01 8.136 36.806 7.728 36.398 7.488C35.99 7.248 35.354 7.128 34.49 7.128H32.672V10.44ZM32.672 16.092H34.706C34.994 16.092 35.306 16.074 35.642 16.038C35.978 15.99 36.284 15.9 36.56 15.768C36.848 15.636 37.082 15.444 37.262 15.192C37.454 14.94 37.55 14.604 37.55 14.184C37.55 13.512 37.322 13.044 36.866 12.78C36.41 12.516 35.72 12.384 34.796 12.384H32.672V16.092ZM41.9863 4.392H44.1463V18H41.9863V4.392ZM46.2627 13.644C46.2627 12.96 46.3827 12.342 46.6227 11.79C46.8747 11.226 47.2107 10.746 47.6307 10.35C48.0507 9.954 48.5487 9.648 49.1247 9.432C49.7007 9.216 50.3127 9.108 50.9607 9.108C51.6087 9.108 52.2207 9.216 52.7967 9.432C53.3727 9.648 53.8707 9.954 54.2907 10.35C54.7107 10.746 55.0407 11.226 55.2807 11.79C55.5327 12.342 55.6587 12.96 55.6587 13.644C55.6587 14.328 55.5327 14.952 55.2807 15.516C55.0407 16.08 54.7107 16.566 54.2907 16.974C53.8707 17.37 53.3727 17.682 52.7967 17.91C52.2207 18.138 51.6087 18.252 50.9607 18.252C50.3127 18.252 49.7007 18.138 49.1247 17.91C48.5487 17.682 48.0507 17.37 47.6307 16.974C47.2107 16.566 46.8747 16.08 46.6227 15.516C46.3827 14.952 46.2627 14.328 46.2627 13.644ZM48.4587 13.644C48.4587 13.98 48.5067 14.316 48.6027 14.652C48.7107 14.988 48.8667 15.288 49.0707 15.552C49.2747 15.816 49.5327 16.032 49.8447 16.2C50.1567 16.368 50.5287 16.452 50.9607 16.452C51.3927 16.452 51.7647 16.368 52.0767 16.2C52.3887 16.032 52.6467 15.816 52.8507 15.552C53.0547 15.288 53.2047 14.988 53.3007 14.652C53.4087 14.316 53.4627 13.98 53.4627 13.644C53.4627 13.308 53.4087 12.978 53.3007 12.654C53.2047 12.318 53.0547 12.018 52.8507 11.754C52.6467 11.49 52.3887 11.28 52.0767 11.124C51.7647 10.956 51.3927 10.872 50.9607 10.872C50.5287 10.872 50.1567 10.956 49.8447 11.124C49.5327 11.28 49.2747 11.49 49.0707 11.754C48.8667 12.018 48.7107 12.318 48.6027 12.654C48.5067 12.978 48.4587 13.308 48.4587 13.644ZM57.789 4.392H59.949V12.996H60.003L63.279 9.36H66.051L62.307 13.266L66.285 18H63.423L60.003 13.572H59.949V18H57.789V4.392Z" fill="black"/>
</svg>
